# xmcd
#
# Track frame offsets:
#	150
#	15031
#	26955
#	40307
#	56034
#	71320
#	84945
#	98170
#	111319
#	124041
#	136400
#	150281
#	162958
#	178180
#	189199
#	201062
#	216511
#	228753
#	242805
#	256222
#	270148
#	285185
#	298338
#	310196
#
# Disc length: 4296 seconds
#
# Revision: 1
# Processed by: cddbd v1.5.2PL0 Copyright (c) Steve Scherf et al.
# Submitted via: EasyCDDAExtractor 2010.6.0.0
#
DISCID=4210c618
DTITLE=Various Artist - La Fiesta Del 40 Tangos Para Bailar-10
DYEAR=2011
DGENRE=Tango
TTITLE0=Anibal Troilo Con Alberto Marino - Tres Amigos
TTITLE1=Anibal Troilo Con Alberto Marino - Cafe De Los Angelitos
TTITLE2=Anibal Troilo Con Alberto Marino - Sombras Nada Mas
TTITLE3=Anibal Troilo Con Alberto Marino - Siga El Corso
TTITLE4=Miguel Calo Con Raúl Iriarte - La Vi Llegar
TTITLE5=Miguel Calo Con Raúl Iriarte - Trenzas
TTITLE6=Miguel Calo Con Raúl Iriarte - Despues
TTITLE7=Miguel Calo Con Raúl Iriarte - Cuando Tallan Los Recuerdos
TTITLE8=Juan D'arienzo Con Héctor Mauré - Tango Brujo
TTITLE9=Juan D'arienzo Con Héctor Mauré - Sobre El Pucho
TTITLE10=Juan D'arienzo Con Héctor Mauré - Infamia
TTITLE11=Juan D'arienzo Con Héctor Mauré - Compadron
TTITLE12=Osvaldo Fresedo Con Roberto Ray - Siempre Es Carnaval
TTITLE13=Osvaldo Fresedo Con Roberto Ray - Niebla Del Riachuelo
TTITLE14=Osvaldo Fresedo Con Roberto Ray - Yo No Se Llorar
TTITLE15=Osvaldo Fresedo Con Roberto Ray - Vida Mia
TTITLE16=Lucio Demare Con Raúl Berón - Una Emocion
TTITLE17=Lucio Demare Con Raúl Berón - Tal Vez Sera Su Voz
TTITLE18=Lucio Demare Con Raúl Berón - Oigo Tu Voz
TTITLE19=Lucio Demare Con Raúl Berón - Como Se Hace Un Tango
TTITLE20=Anibal Troilo Con Floreal Ruiz - Marioneta
TTITLE21=Anibal Troilo Con Floreal Ruiz - Naranjo En Flor
TTITLE22=Anibal Troilo Con Floreal Ruiz - Equipaje
TTITLE23=Anibal Troilo Con Floreal Ruiz - Yuyo Verde
EXTD=
EXTT0=
EXTT1=
EXTT2=
EXTT3=
EXTT4=
EXTT5=
EXTT6=
EXTT7=
EXTT8=
EXTT9=
EXTT10=
EXTT11=
EXTT12=
EXTT13=
EXTT14=
EXTT15=
EXTT16=
EXTT17=
EXTT18=
EXTT19=
EXTT20=
EXTT21=
EXTT22=
EXTT23=
PLAYORDER=
